ply
format ascii 1.0
element vertex 1137
property float x
property float y
property float z
property uchar red
property uchar green
property uchar blue
element face 390
property list uchar uint vertex_indices
end_header
159 590 -1685.88 83 39 38
439 588 -1662.73 43 29 28
456 583 -1647.74 73 37 37
450 577 -1575.65 37 38 30
338 571 -1531.59 64 51 42
339 571 -1536.63 50 40 31
183 570 -1536.44 61 36 29
179 565 -1506.79 74 42 47
168 563 -1475.76 69 39 39
117 557 -1455.52 70 43 36
68 556 -1508.92 70 43 36
107 556 -1457.7 71 37 36
73 555 -1454.98 85 56 52
73 554 -1442.53 95 57 54
93 554 -1445.15 80 53 46
72 552 -1438.84 93 52 46
66 550 -1408.24 85 64 63
69 550 -1398.99 83 59 49
111 549 -1441.53 70 54 38
97 547 -1402.66 59 42 32
114 546 -1419.75 99 62 56
75 540 -1340.57 85 67 45
95 540 -1358.63 101 73 62
92 537 -1357.6 112 74 61
93 537 -1350.73 101 73 59
352 537 -1343.81 75 52 38
91 536 -1354.41 111 72 57
92 536 -1350.64 110 72 59
93 536 -1350.02 106 68 57
198 532 -1305.69 66 49 39
199 532 -1304.59 70 53 43
56 531 -1323.51 115 81 53
67 531 -1309.72 109 82 55
75 529 -1297.43 63 45 43
51 525 -1260.79 57 47 38
51 524 -1250.32 45 36 27
399 511 -1182.17 54 47 31
399 510 -1172.47 59 51 38
253 468 -957.62 47 38 31
308 442 -809.996 126 82 73
308 441 -801.405 131 87 76
308 440 -794.508 121 79 67
285 437 -708.283 111 76 57
285 422 -736.766 139 100 85
285 421 -732.558 146 107 90
285 420 -727.374 143 106 87
245 412 -586.815 105 85 78
246 412 -590.508 100 82 72
142 407 -603.876 103 80 72
96 406 -526.78 52 36 23
123 406 -550.506 127 103 91
124 406 -541.996 131 107 95
140 405 -552.83 88 58 47
140 404 -574.03 158 116 100
238 404 -543.982 110 71 56
239 404 -546.945 111 74 58
76 403 -568.231 116 92 68
252 403 -543.461 110 67 58
253 403 -545.443 112 70 58
41 402 -519.088 79 67 53
42 402 -528.222 79 65 56
127 402 -522.716 82 49 34
227 402 -522.09 86 53 34
228 402 -522.628 80 49 31
249 402 -529.674 73 40 31
250 402 -534.147 75 42 33
251 402 -536.068 80 46 36
252 402 -537.02 89 52 43
253 402 -538.133 94 56 45
43 401 -609.94 114 99 80
201 394 -474.628 94 57 48
41 393 -468.349 130 96 71
200 393 -472.506 95 61 51
282 392 -470.698 115 78 62
283 392 -466.756 132 94 75
284 392 -479.077 146 105 83
285 392 -475.407 135 97 74
194 391 -453.68 123 80 64
195 391 -464.375 111 69 55
196 391 -470.258 95 56 41
197 391 -466.889 86 50 36
281 391 -462.516 71 44 33
282 391 -465.264 89 57 44
283 391 -458.471 108 72 56
284 391 -463.952 128 93 73
285 391 -466.194 123 88 68
194 390 -450.217 100 60 48
195 390 -458.467 87 49 38
196 390 -462.272 74 38 26
197 390 -460.358 66 34 23
284 390 -450.708 89 57 42
191 389 -431.47 105 59 44
187 388 -449.733 123 76 66
188 388 -444.042 114 67 59
189 388 -426.199 104 60 51
190 388 -422.644 92 48 39
191 388 -422.334 78 38 30
184 387 -441.029 128 85 69
185 387 -429.819 114 72 58
186 387 -430.088 109 66 57
187 387 -428.924 97 57 49
183 386 -427.127 123 85 66
184 386 -436.561 106 69 51
185 386 -431.828 95 57 44
186 386 -429.867 87 50 41
187 386 -428.048 69 35 26
180 385 -412.291 137 99 76
181 385 -417.69 130 94 70
182 385 -412.181 111 76 54
183 385 -415.67 91 60 40
184 385 -423.419 77 48 30
185 385 -424.945 69 41 27
180 384 -421.386 109 73 51
181 384 -417.319 98 66 45
182 384 -402.037 75 48 27
179 383 -417.465 88 53 31
180 383 -418.194 76 45 24
181 383 -413.76 63 38 18
176 382 -407.656 108 71 52
167 381 -398.283 154 108 92
169 381 -408.151 142 97 78
170 381 -408.039 141 96 77
171 381 -406.51 138 95 76
172 381 -407.697 128 87 69
174 381 -397.486 111 70 52
175 381 -399.45 97 60 41
176 381 -401.535 77 50 31
143 380 -417.857 142 104 83
165 380 -404.942 106 70 58
166 380 -400.662 103 67 55
174 380 -388.728 81 50 30
175 380 -386.102 69 44 24
131 379 -385.948 120 93 74
132 379 -388.531 122 95 76
136 379 -430.615 122 91 73
72 377 -399.701 134 106 82
75 377 -425.278 130 102 80
38 375 -393.484 163 135 111
36 366 -312.467 38 36 24
35 360 -267.363 60 60 52
35 359 -261.276 64 64 56
188 356 -323.082 52 34 22
189 356 -324.484 55 37 25
190 356 -325.822 57 39 27
191 356 -328.164 62 40 29
192 356 -326.936 66 39 32
35 355 -231.838 56 56 46
179 355 -313.119 57 40 30
180 355 -320.131 59 43 30
181 355 -324.765 63 47 34
182 355 -327.143 66 50 37
184 355 -324.22 66 48 34
187 355 -313.78 62 40 27
188 355 -316.294 69 46 32
189 355 -318.674 74 51 37
190 355 -318.973 76 53 39
191 355 -320.706 78 51 40
192 355 -315.954 78 48 40
35 354 -227.438 55 55 45
175 354 -311.236 75 57 47
176 354 -309.722 78 58 47
179 354 -307.47 71 52 38
180 354 -311.74 72 53 39
181 354 -317.508 78 59 45
35 353 -224.129 52 52 44
172 353 -305.113 82 55 48
165 352 -299.048 51 28 20
168 352 -303.276 90 60 49
169 352 -306.852 103 71 60
170 352 -305.112 100 68 57
35 351 -200.264 42 39 34
160 348 -276.953 75 47 43
35 345 -206.891 42 38 27
35 339 -146.961 41 38 31
225 336 -127.911 63 45 41
225 335 -122.654 60 41 37
226 335 -125.448 68 52 52
225 334 -110.913 51 33 29
226 334 -115.841 60 46 45
227 334 -116.179 64 50 50
228 334 -120.338 67 52 55
226 333 -107.071 49 38 34
227 333 -105.378 54 43 41
228 333 -107.645 61 49 49
218 332 -108.44 85 65 66
227 332 -103.401 43 35 32
228 332 -98.7725 56 44 44
211 331 -200.917 94 68 69
218 331 -106.714 84 64 65
228 331 -92.7725 51 41 39
211 330 -191.373 97 71 72
212 330 -168.772 73 54 50
218 330 -104.35 82 62 63
221 330 -187.649 78 66 68
211 329 -179.27 98 72 73
212 329 -156.532 77 58 54
218 329 -95.7923 81 61 62
221 329 -178.275 79 67 67
212 328 -150.029 76 56 55
218 328 -85.5 81 61 62
212 327 -138.877 81 66 61
218 327 -73.4729 81 61 60
220 327 -66.3072 94 79 84
211 326 -151.135 121 96 99
220 326 -60.47 85 70 75
222 326 -137.424 45 36 29
223 326 -139.387 42 38 29
211 325 -143.02 126 101 104
212 325 -130.498 92 77 74
222 325 -129.21 48 38 37
223 325 -128.638 51 43 41
224 325 -122.717 69 59 60
225 325 -130.473 84 81 76
226 325 -128.931 78 73 69
212 324 -118.381 106 84 86
157 323 -55.9981 119 78 60
212 323 -114.071 112 89 95
213 323 -121.69 77 68 61
157 322 -50.2408 115 74 56
212 322 -112.656 110 96 93
213 322 -120.038 91 84 78
156 321 -43.679 90 53 37
157 321 -41.0279 111 73 54
158 321 -39.0679 128 86 64
213 321 -111.403 94 87 81
156 320 -38.0742 90 57 38
157 320 -35.3009 106 70 48
158 320 -31.4862 121 81 56
213 320 -107.676 102 92 90
214 320 -107.302 75 72 67
156 319 -27.0642 84 53 33
157 319 -26.3922 99 64 42
158 319 -24.5026 116 76 51
159 319 -31.6745 127 85 60
213 319 -99.9462 103 93 91
214 319 -97.3436 78 74 71
157 318 -17.6654 88 56 35
158 318 -19.158 106 68 45
159 318 -26.0864 121 79 57
214 318 -88 90 71 73
158 317 -14.6338 98 60 39
159 317 -18.2224 118 75 56
260 317 -12.5027 117 78 83
261 317 -13.6671 119 78 84
262 317 -17.7801 120 79 85
159 316 -12.8875 114 73 55
160 316 -18.0389 127 83 70
262 316 -10.2677 110 71 76
263 316 -12.6015 114 73 79
264 316 -14.3505 115 74 82
159 315 -6.44045 109 67 53
160 310 32.4778 96 59 53
161 310 38.9029 112 72 72
161 309 45.7741 109 69 69
161 308 51.6998 102 64 61
39 304 46 140 119 90
40 304 43.3602 147 122 91
58 304 50.8923 135 110 70
59 304 48.6567 140 112 75
60 304 46.4698 137 107 73
61 304 38.6685 140 104 82
58 302 -6.59207 193 162 133
228 297 117.783 125 89 93
229 297 116.777 128 89 94
232 296 109.174 116 71 74
236 296 110.71 124 78 80
237 296 109.358 126 80 82
238 296 111.14 129 80 83
240 296 110.009 131 82 85
242 296 108.22 139 87 91
243 296 110.496 143 88 94
244 296 115.272 144 87 94
245 296 118.266 147 90 99
234 295 120.342 111 67 66
236 295 116.577 111 67 66
237 295 114.1 114 70 67
238 295 117.764 119 74 71
239 295 118.052 120 75 72
240 295 113.824 122 74 72
241 295 116.403 123 75 75
242 295 117.346 134 84 85
243 295 116.778 133 81 85
244 295 116.465 133 78 83
245 295 118.627 137 82 88
246 295 120.855 134 79 85
238 294 124.052 107 64 58
239 294 125.292 108 65 59
240 294 127.017 110 65 60
241 294 130.456 113 65 63
242 294 127.964 117 67 66
261 294 117.123 135 89 92
262 294 118.5 136 91 96
254 293 146.629 113 70 64
255 293 142.997 121 76 70
258 293 131.428 128 83 78
259 293 129.562 137 92 89
260 293 130.321 140 94 94
261 293 129.116 135 91 92
262 293 127.53 131 86 89
278 293 122.035 84 59 65
259 292 141.062 114 71 65
260 292 140.912 116 73 67
261 292 139.272 117 76 72
262 292 137.147 119 78 76
263 292 135.355 122 80 81
264 292 135.839 121 81 82
265 292 130.5 110 74 74
261 291 149.523 103 62 56
262 291 145.481 108 67 63
263 291 141.899 108 68 66
264 291 144.291 108 70 67
265 291 142.043 100 66 64
266 291 140.083 89 59 57
228 284 72.0394 93 83 82
230 282 130.674 125 105 114
227 281 216.21 97 78 80
228 281 223.924 107 88 92
226 280 208.873 89 70 74
227 280 214.364 92 73 77
228 280 212.448 110 91 97
229 280 217.159 115 94 101
230 280 205.954 107 81 90
226 279 208.828 80 61 65
227 279 211.433 84 68 71
228 279 217.086 101 85 88
229 279 221.172 115 96 102
230 279 216.226 112 89 97
231 279 224.576 104 77 84
232 279 230.473 104 73 81
226 278 213.229 60 44 45
229 278 227.709 64 48 51
230 278 221.294 84 63 68
231 278 221.131 93 68 72
232 278 225.349 99 70 75
233 278 220.109 98 69 74
226 277 223.303 48 34 34
231 277 221.667 66 46 47
232 277 225.122 82 57 60
233 277 221.207 85 59 60
129 274 196.62 108 93 86
258 273 242.971 76 56 55
256 272 248.862 79 57 59
257 272 249.042 68 49 51
256 271 261.819 67 49 49
130 270 184.473 136 119 103
251 269 270.109 96 67 72
252 269 271.64 88 63 66
249 268 276.904 101 70 76
250 268 278.403 92 62 70
251 268 279.647 82 57 63
131 267 210.996 180 154 139
248 267 289.272 98 69 73
249 267 288.226 92 65 70
250 267 289.578 78 53 59
131 266 215.669 223 194 178
132 266 219.491 191 165 152
133 266 224 139 115 103
132 265 228.838 216 186 175
133 265 226.01 188 162 149
134 265 226.979 136 114 100
244 265 309.305 70 46 44
245 265 306.864 73 47 46
133 264 228.43 209 181 169
134 264 230.502 179 156 142
137 262 237.59 126 109 93
137 259 256.794 185 160 138
138 259 252.7 181 160 143
138 258 261.083 187 164 148
139 258 259.415 176 156 145
140 258 266.62 134 117 107
139 257 275.426 176 153 139
140 257 281.867 178 156 135
141 257 267.419 139 121 111
140 256 292.419 206 180 157
141 256 286.53 188 161 140
211 256 343.473 79 52 43
141 255 286.656 195 163 150
142 255 279.575 186 156 145
143 255 282.136 156 128 116
142 254 286.245 195 162 147
143 254 280.621 181 149 136
144 254 287.304 161 132 116
192 254 365.946 93 66 55
107 252 374.425 249 203 187
156 250 306.844 108 93 74
261 249 346.879 83 65 55
262 249 342.867 82 64 54
257 247 346.455 92 62 51
261 247 428.008 149 129 120
266 247 361.421 116 94 83
166 244 347.948 148 120 108
167 244 348.346 146 122 110
168 243 364.17 145 119 104
192 243 405.763 92 69 63
193 243 404.59 91 66 61
172 242 380.945 160 128 113
173 242 379.949 161 129 114
174 242 381.854 164 135 121
175 242 380.945 164 136 122
176 242 378.376 159 133 116
177 242 382.056 157 131 114
178 242 380.77 151 126 106
179 242 375.019 143 118 98
180 242 373.38 141 114 95
181 242 373.304 138 111 94
183 242 363.767 129 106 92
184 242 364.409 129 106 92
185 242 367.21 125 102 88
186 242 372.121 132 100 89
187 242 371.728 131 101 91
188 242 362.003 132 108 98
189 242 357.382 134 110 100
174 241 388.67 167 134 115
175 241 385.914 164 133 113
176 241 384.235 162 134 112
177 241 390.069 165 137 115
178 241 391.558 167 139 117
179 241 387.02 164 136 114
180 241 383.021 165 134 113
181 241 378.5 162 131 110
182 241 373.65 150 124 107
183 241 373.163 152 125 108
184 241 372.412 154 127 110
185 241 373.128 157 131 114
186 241 376.621 163 127 111
187 241 380.454 160 124 110
188 241 376.104 152 119 104
189 241 370.713 147 119 105
190 241 368.696 150 122 110
191 241 366.706 162 136 123
192 241 363.294 156 135 118
193 241 362.431 143 125 105
194 241 365.545 131 116 95
195 241 372.907 121 109 85
196 241 374.908 126 93 86
197 241 373.102 117 107 80
204 241 363.423 122 98 86
205 241 364.64 117 94 86
206 241 369.824 111 88 82
205 240 379.477 139 110 92
206 240 381.073 137 112 92
207 240 380.27 136 109 90
299 240 374.942 80 62 40
212 239 373.998 156 124 103
213 239 374.455 145 114 93
214 239 381.244 121 97 73
242 239 374.395 128 100 78
267 239 453.269 147 110 81
268 239 445.812 154 117 90
269 239 438.369 160 119 99
212 238 379.926 185 149 127
213 238 377.076 177 145 124
218 238 386.877 113 103 78
219 238 390.035 112 101 79
220 238 386.811 115 103 81
222 238 386.877 127 106 89
223 238 387.717 128 105 89
224 238 384.537 121 100 79
225 238 385.177 124 103 82
226 238 383.074 126 103 85
227 238 383.113 132 109 93
228 238 379.309 147 121 108
229 238 392.221 138 102 86
231 238 387.041 132 105 96
232 238 386.942 127 100 89
238 238 405.843 162 128 118
299 238 404.5 89 59 48
228 237 407.078 181 143 124
229 237 389.267 172 143 129
230 237 399.028 175 137 116
231 237 399.676 186 150 128
232 237 389.465 171 142 128
236 237 420.411 177 142 123
299 237 413.956 90 60 49
224 236 474.861 170 144 121
226 236 468.24 167 142 122
227 236 462.953 166 141 121
235 236 419.306 191 153 130
237 235 504.978 137 101 75
252 233 458.888 123 81 59
290 231 522.295 81 60 43
291 231 518.713 84 66 46
292 231 387.983 69 51 29
285 229 488.311 199 154 131
286 229 469.895 212 172 147
291 229 454.527 165 123 99
292 229 466.189 166 123 104
293 229 475.094 170 133 117
294 229 476.868 161 132 118
243 228 461.36 219 171 151
285 228 493.69 235 189 166
286 228 473.901 252 212 187
285 227 492.99 238 194 169
243 226 555.28 130 94 72
244 226 560.53 128 92 68
253 226 495.373 127 85 63
193 224 529.581 194 147 129
184 223 507.939 230 183 165
185 223 524.717 212 167 148
193 223 547.922 197 152 131
288 223 561.038 154 117 108
298 223 545.68 133 105 81
299 223 550.291 108 86 63
193 222 553.922 181 143 122
219 222 530.549 159 122 95
246 222 567.915 139 107 84
299 222 562.463 72 55 35
212 221 592.954 177 140 114
214 221 588.742 178 143 115
215 221 448.038 164 140 106
268 220 566.496 155 109 94
271 220 574.818 164 118 105
281 218 579.825 133 96 87
282 218 579.83 129 93 79
283 218 567.643 115 78 62
252 217 568.257 103 72 54
260 217 544.985 86 50 26
250 212 595.801 85 60 30
250 211 597.961 91 66 36
251 205 650.624 71 54 38
251 204 657.146 80 63 47
251 203 660.696 79 62 46
250 202 662.438 155 127 113
250 201 666.629 163 137 122
251 201 664 86 69 53
288 201 678.465 69 47 36
289 201 672.8 103 76 65
290 201 670.217 114 90 80
250 200 659.151 185 153 140
251 200 670 90 73 57
251 199 668.192 109 88 71
251 198 666.896 121 99 85
251 197 668.636 128 107 90
252 196 721.424 61 56 36
291 196 705.157 100 76 64
252 195 723.035 61 54 35
252 193 691.016 70 68 45
295 189 687.817 121 99 85
254 181 820.302 79 62 42
254 180 830.49 91 74 56
301 180 815.224 149 123 108
252 179 764.763 217 186 166
253 179 839.694 206 184 160
254 179 839.587 92 75 57
252 178 766.846 223 190 171
253 178 844.548 219 197 174
254 178 845.506 90 73 57
252 177 772.029 225 190 170
254 173 823.936 158 141 125
311 159 929.156 94 77 57
311 158 940.994 75 56 41
312 156 943.69 59 36 28
313 156 918.697 114 89 69
316 155 906.009 119 93 66
314 153 967.882 66 44 31
258 152 962.933 88 71 55
317 152 952.357 155 118 100
176 150 870.961 227 195 170
330 149 988.035 118 95 87
331 149 983.332 102 83 76
258 148 1002.26 135 119 103
259 148 1002.63 51 43 30
330 148 987.946 121 99 88
331 148 985.2 108 90 80
321 147 949.157 129 99 88
322 147 948.837 141 112 98
252 145 967.238 130 102 63
253 145 986.582 137 107 69
255 145 994.471 107 72 44
256 145 988.775 122 84 65
259 145 923.82 85 79 63
196 144 1035.02 222 197 167
196 143 1034.94 223 197 170
326 143 921.755 140 114 91
247 142 973.791 222 191 171
249 142 1035.92 137 110 83
259 142 1006.16 174 156 146
326 142 919.332 106 86 62
327 142 931.295 157 133 109
247 139 1071.09 154 134 109
263 139 1050.06 78 75 56
327 139 951.806 98 89 60
245 138 1013.64 232 206 183
247 138 1059.52 172 150 126
327 138 954.662 86 75 45
208 137 1077.31 185 154 123
209 137 1077.65 190 155 125
249 137 975.229 241 201 189
286 137 995.667 110 101 84
287 137 994.713 102 93 76
184 136 1062.29 238 211 192
245 136 1050.88 192 165 146
249 136 978.111 255 215 205
309 136 1072.89 124 117 101
310 136 1075.12 125 117 104
312 136 1077.53 124 117 101
313 136 1073.82 127 120 104
314 136 1066.81 125 119 103
320 136 967.189 110 108 87
321 136 982.441 114 112 91
322 136 989.316 109 108 87
200 135 1077.04 179 150 134
203 135 1056.97 161 144 116
204 135 1044.14 169 149 122
220 135 1048.12 190 162 138
224 135 1051.91 217 189 165
225 135 1061.59 213 185 161
226 135 1067.54 215 188 161
298 135 1084.19 149 132 112
332 135 1042.67 113 92 75
334 135 1090.64 42 41 36
215 134 978.828 160 125 93
216 134 984.514 159 124 94
217 134 1060.41 158 132 107
221 134 1069.69 61 55 23
222 134 1072.32 82 66 40
223 134 1079.54 78 58 34
227 134 1043.52 77 42 22
332 134 1050.14 118 96 83
334 134 1098.96 46 47 42
213 133 1041.66 144 110 82
214 133 1033.64 127 91 65
215 133 1006.05 113 79 44
216 133 998.424 118 83 51
217 133 1061.62 133 107 80
218 133 1073.19 82 73 32
230 133 1043.71 131 90 70
235 133 1099.19 198 167 139
236 133 1105.16 209 175 148
332 133 1057.24 108 89 75
217 132 1065.5 177 150 123
218 132 1076.99 135 111 83
219 132 1080.01 89 87 46
223 132 979.794 86 69 43
225 132 985.728 81 67 40
231 132 983.855 87 62 31
232 132 987.016 96 66 38
234 132 1067.87 115 84 56
235 132 1106.48 116 93 61
236 132 1116.27 133 106 76
240 132 1052.74 106 74 49
247 132 1009.26 147 120 103
234 131 1044.78 157 127 99
235 131 1044.73 147 120 93
219 130 1034.13 207 186 159
220 130 1026.04 213 193 168
224 130 1076.12 201 180 151
242 130 1105.58 118 91 62
246 130 1131.94 120 98 75
332 130 1074.69 118 105 88
240 129 1004.83 143 127 91
335 126 1120.61 48 48 38
335 123 1176.13 108 100 81
249 121 1077.3 147 119 95
340 119 1142.67 123 101 87
353 119 1171.92 42 33 28
340 118 1158.19 141 115 98
341 118 1164.85 111 108 99
353 118 1182.2 48 37 33
342 117 1179.08 121 117 106
353 117 1190.51 50 37 31
342 116 1189.38 124 116 103
354 116 1157.95 102 89 70
344 115 1193.62 124 116 105
345 115 1192.84 107 101 89
354 115 1164.29 105 88 68
347 114 1194.08 80 74 62
348 114 1184.61 49 45 34
353 114 1177.07 59 42 26
354 114 1170.49 95 74 55
353 113 1186.97 74 55 38
350 112 1219.62 81 82 66
351 112 1208.54 70 73 54
352 112 1208.39 85 84 63
353 112 1210.62 93 87 65
351 111 1219.09 114 116 95
352 111 1223.26 111 111 85
353 111 1221.32 107 103 76
365 108 1232.1 51 49 36
365 107 1241.01 65 62 45
357 105 1268.56 65 49 34
357 104 1278.03 65 52 36
187 102 1279.47 142 113 83
194 102 1243.03 135 100 80
203 102 1233.73 187 152 124
204 102 1240.16 195 160 132
215 102 1167.82 253 223 199
216 102 1161.69 254 226 202
183 101 1259.04 191 178 161
214 101 1202.75 154 124 100
217 101 1293.04 171 136 106
228 101 1262.9 227 185 163
229 101 1264 234 198 176
356 101 1199.89 107 95 69
183 100 1267.06 174 165 148
184 100 1280.21 108 90 68
208 100 1256.19 117 76 54
209 100 1271.94 109 75 50
210 100 1287.43 111 77 52
216 100 1226.57 117 80 61
217 100 1252.63 106 71 51
225 100 1278.77 133 101 76
229 100 1310.31 140 102 83
231 100 1288.48 152 117 95
242 100 1264.43 197 157 132
243 100 1268.12 216 176 150
244 100 1270.39 208 178 152
245 100 1275.47 207 173 148
246 100 1281.73 222 186 162
247 100 1293.72 242 206 184
248 100 1302.02 209 176 157
249 100 1286.38 150 122 100
357 100 1301.76 80 74 50
228 99 1287.1 117 76 58
229 99 1301.73 113 72 54
357 99 1295.61 87 81 55
228 98 1294.04 117 75 59
237 98 1271.09 100 67 36
238 98 1275.44 99 66 35
239 98 1282 91 55 39
245 98 1210.59 90 66 28
249 98 1255.61 88 80 44
255 98 1294.5 98 65 46
256 98 1300.63 94 63 43
265 98 1186.89 120 83 65
269 98 1218 113 75 62
272 98 1321.38 144 105 90
274 98 1193.96 144 113 95
275 98 1197.11 147 116 96
276 98 1200.33 137 109 87
280 98 1214.76 155 125 97
289 98 1245.44 199 158 138
291 98 1287.34 177 146 125
292 98 1288.04 193 165 141
293 98 1274.38 203 168 146
294 98 1264.34 215 183 158
296 98 1275.66 206 176 150
297 98 1278.22 209 179 155
323 98 1317.78 221 204 176
324 98 1315.7 219 202 176
354 98 1273.94 126 108 88
355 98 1267.6 132 113 96
357 98 1303.8 80 74 48
178 97 1255.5 179 153 128
270 97 1274.79 79 39 14
288 97 1258.02 76 38 19
289 97 1253.58 84 47 28
290 97 1249.52 79 44 24
291 97 1278.24 81 46 27
292 97 1276.44 80 47 28
295 97 1210.03 77 54 36
300 97 1306.51 92 63 45
301 97 1300.76 100 69 51
302 97 1279.58 100 68 53
303 97 1263.59 111 82 66
304 97 1272.36 94 67 50
306 97 1301.33 96 67 53
307 97 1299.08 108 76 63
311 97 1335.44 102 70 57
322 97 1272.83 118 92 69
331 97 1219.6 132 119 87
360 97 1281.86 71 57 30
172 96 1304.78 157 128 112
184 96 1252.88 166 136 128
282 96 1309.11 70 42 31
302 96 1214.51 64 31 26
362 96 1304.57 131 115 99
180 95 1250 176 143 128
362 95 1305.09 114 97 81
367 95 1318.8 82 79 72
168 94 1214.32 156 137 122
171 94 1302.84 131 103 81
179 94 1319.42 115 79 55
362 94 1298.5 107 91 66
367 94 1327.36 87 82 78
168 93 1355.67 126 96 85
180 93 1333.24 123 87 63
181 93 1323.74 159 121 102
190 93 1303.14 98 76 55
364 93 1314.61 119 100 96
367 93 1328.7 85 80 76
166 92 1336.2 198 169 163
181 92 1311.68 124 91 76
183 92 1238.02 239 211 190
166 91 1343.85 144 116 105
167 91 1345.96 119 91 79
370 91 1330.76 49 50 36
164 90 1363.64 191 169 158
165 90 1320.28 145 128 100
166 90 1337.7 117 98 83
182 90 1290.28 128 102 79
202 90 1333.2 57 47 38
203 90 1330.82 62 52 43
204 90 1332.91 68 58 48
205 90 1331.55 69 59 47
219 90 1338.83 83 61 48
220 90 1337.74 83 59 49
364 90 1331.01 59 39 40
365 90 1314.22 112 91 70
367 90 1360.79 108 94 94
370 90 1331.06 50 48 36
164 89 1376.49 140 118 104
166 89 1341.66 116 100 84
216 89 1338.36 56 44 28
219 89 1348.79 75 57 45
220 89 1349.6 80 57 49
367 89 1365.98 120 102 102
370 89 1332.91 59 53 41
163 88 1380.77 164 145 130
164 88 1384.27 120 103 83
199 88 1369.92 71 65 53
200 88 1299.03 212 205 186
219 88 1319.86 43 30 14
367 88 1373.67 123 104 100
370 88 1344.92 62 58 47
163 87 1370.54 132 117 96
244 87 1337.66 64 46 34
245 87 1352.96 51 42 27
162 86 1386.39 138 126 100
163 86 1383.74 131 121 94
199 86 1372.2 74 63 45
228 86 1343.42 227 209 195
368 86 1369.04 98 83 78
160 85 1343.69 167 134 103
162 85 1401.74 126 117 88
199 85 1377.57 81 66 45
245 85 1345.41 209 187 176
257 85 1350.04 92 67 63
137 84 1393.46 202 169 160
251 84 1385.29 187 173 162
257 84 1361.04 207 180 169
258 84 1359.33 190 167 153
261 84 1368.96 160 143 127
280 83 1362.04 212 193 178
282 83 1366.34 231 207 197
199 82 1399.02 91 64 45
305 82 1295.04 230 218 204
306 82 1293.03 230 218 204
307 82 1282.99 218 206 194
343 82 1362.76 114 113 95
344 82 1377.58 101 100 82
345 82 1374.24 108 107 89
346 82 1373.91 106 103 86
347 82 1364.9 106 103 86
348 82 1358.28 123 117 101
199 81 1403.03 85 59 42
199 80 1396.52 72 51 32
349 80 1424.76 107 95 83
351 80 1393.2 46 36 27
201 79 1331.18 199 183 147
350 79 1392.02 59 48 28
169 78 1380.78 149 120 112
172 78 1379.64 71 58 42
169 77 1385.11 153 123 113
347 77 1424.94 76 70 44
172 76 1413.74 87 72 51
349 76 1406.89 76 68 45
458 76 1432.48 39 42 33
166 75 1418.62 106 78 67
169 75 1344.76 142 127 98
170 75 1346.58 141 127 101
171 75 1352.14 135 124 106
172 75 1433.78 87 88 72
349 75 1419.31 109 103 79
373 75 1432.32 47 49 36
349 74 1418.04 122 118 93
351 74 1438.91 41 41 29
364 74 1431.4 96 84 68
365 74 1435.58 75 67 54
156 73 1419.67 117 101 75
163 73 1455.35 84 81 64
351 73 1448.96 45 45 33
357 73 1450.96 56 51 32
364 73 1437.33 101 88 72
350 72 1421.79 103 87 72
351 72 1445.47 52 50 38
357 72 1460.74 66 55 37
359 72 1412.76 145 119 96
351 71 1433.5 86 68 56
354 71 1475.37 45 39 27
356 71 1465.54 61 48 31
357 71 1470.26 76 61 40
154 70 1439.11 124 102 78
351 70 1439.7 117 96 79
352 70 1439.73 94 83 61
356 70 1469.21 71 50 33
357 70 1468.26 87 64 46
356 69 1466.29 82 56 41
357 69 1467.96 96 69 52
359 69 1402.53 135 114 85
324 68 1494.33 174 157 137
325 68 1491.6 168 151 133
348 68 1498.01 118 110 87
351 68 1473.16 96 98 76
353 68 1463.76 92 84 71
354 68 1471.49 83 69 58
355 68 1474.2 77 57 46
356 68 1472.74 89 63 50
357 68 1472.01 103 76 59
370 68 1468.62 58 50 39
162 67 1422.44 137 119 105
202 67 1444.96 170 137 122
293 67 1462.13 149 126 94
302 67 1460.92 140 113 86
322 67 1518 142 128 99
325 67 1442.84 160 146 119
326 67 1445.19 160 145 122
346 67 1464.96 92 79 47
347 67 1478.24 86 75 53
357 67 1478.13 98 72 55
370 67 1482.87 80 65 58
371 67 1473.59 55 40 33
162 66 1408.3 147 140 124
300 66 1505.88 96 86 51
304 66 1479.38 81 66 35
305 66 1486.08 84 69 38
314 66 1480.79 86 69 41
317 66 1509.78 93 78 47
318 66 1501.85 96 77 44
319 66 1492.06 97 79 43
321 66 1511.13 89 75 40
322 66 1512.68 87 73 44
327 66 1376.23 49 37 15
335 66 1470.47 68 52 16
336 66 1471.14 61 51 16
342 66 1462.14 53 48 16
343 66 1472.29 47 42 10
344 66 1499.51 54 46 23
371 66 1484.34 69 50 46
159 65 1506.1 104 87 69
267 65 1498.57 191 162 144
274 65 1468.21 179 152 125
275 65 1472.97 188 158 132
308 65 1490.24 58 49 18
359 65 1430.77 104 82 61
371 65 1491.65 85 60 56
159 64 1515.27 105 88 70
269 64 1441.56 122 101 74
280 64 1500.74 150 137 105
281 64 1452.47 124 105 72
282 64 1449.81 118 104 69
283 64 1459.55 113 101 63
284 64 1491.34 104 101 68
359 64 1430.67 71 60 42
371 64 1490.12 105 75 67
267 63 1510.26 175 153 130
269 63 1447.35 70 55 24
270 63 1502.4 75 63 47
284 63 1505.98 100 101 69
391 63 1474.36 77 67 57
202 62 1506.27 77 51 26
254 62 1514.79 133 111 97
258 62 1409.69 161 131 107
262 62 1451.29 159 124 104
263 62 1456.37 160 125 106
264 62 1456.04 162 129 114
265 62 1460.06 169 137 124
268 62 1507.47 93 80 61
390 62 1523.95 40 36 27
391 62 1480.69 78 66 54
162 61 1482.2 146 125 106
163 61 1544.92 121 110 90
203 61 1466.84 200 164 148
252 61 1473.21 78 45 38
259 61 1525.92 70 45 25
260 61 1511.24 70 43 24
390 61 1513.29 47 40 30
391 61 1487.85 76 64 50
162 60 1490.03 141 118 100
164 60 1552.85 58 52 36
201 60 1543.07 77 60 40
203 60 1482.53 203 167 151
251 60 1531.91 136 115 86
389 60 1520.1 40 31 22
390 60 1511.62 53 45 34
164 59 1562.31 61 55 39
201 59 1551.58 75 58 40
203 59 1487.84 198 162 146
251 59 1546.22 126 107 77
390 59 1523.96 54 46 33
164 58 1564.67 67 61 45
203 58 1495.17 178 142 126
203 57 1500.53 157 124 107
276 57 1557.09 103 109 83
165 56 1543.04 53 53 41
203 56 1526.24 131 103 82
249 56 1485.96 204 182 158
250 56 1552.16 200 189 161
252 56 1449.69 53 35 23
319 56 1527.63 59 60 26
347 56 1531.78 45 47 23
445 56 1548.42 49 40 31
249 55 1497.73 203 183 158
250 55 1558 197 187 160
158 54 1533.5 124 98 85
250 54 1558.5 194 187 161
251 54 1450.77 144 123 106
252 54 1491.28 65 47 33
347 54 1529.95 67 70 43
158 53 1546.21 120 93 82
279 53 1546.94 99 95 70
334 53 1567.51 54 56 45
335 53 1568.32 60 61 53
336 53 1574.72 55 56 48
346 53 1565.35 45 50 27
348 53 1481.54 170 179 158
349 53 1594.94 154 159 139
350 53 1570.14 52 56 39
391 53 1578.33 86 72 69
136 52 1538.79 170 153 135
256 52 1537.37 130 115 94
257 52 1544.31 125 110 89
266 52 1517.04 98 90 71
268 52 1575.04 67 61 45
269 52 1568.49 62 60 39
272 52 1557.76 52 47 18
273 52 1545.62 64 59 29
276 52 1548.7 74 60 34
277 52 1547.46 77 62 39
278 52 1544.73 85 73 49
297 52 1564.06 75 81 43
344 52 1566.86 41 44 23
349 52 1595.5 171 172 156
390 52 1571.72 52 41 35
136 51 1544.3 177 160 144
203 51 1548.11 75 53 29
257 51 1559.77 150 134 109
259 51 1592.42 193 175 163
275 51 1476.75 65 71 45
276 51 1595.04 54 55 39
344 51 1578.98 38 41 20
348 51 1557.43 199 195 170
390 51 1573.15 51 38 30
257 50 1568.11 154 134 109
259 50 1587.27 184 157 148
350 50 1592.26 80 78 65
390 50 1578.17 45 30 23
278 49 1563.84 136 128 92
350 49 1597.72 96 95 77
163 48 1611.31 118 106 90
279 48 1576.97 138 136 97
347 48 1601.53 45 47 26
349 48 1525.91 195 194 173
151 47 1608.82 114 106 95
163 47 1608.41 125 113 97
195 47 1594.61 61 41 34
349 47 1535.58 180 180 154
351 47 1614.67 51 53 31
155 46 1542.68 84 60 60
157 46 1596.28 88 76 64
163 46 1605.69 118 106 92
173 46 1600.32 72 54 50
257 46 1612.48 183 168 145
273 46 1603.76 163 141 118
274 46 1613.41 161 136 116
276 46 1640.88 129 106 90
277 46 1628.29 130 109 92
278 46 1627.86 119 100 83
351 46 1635.04 72 74 52
407 46 1579.88 78 68 56
155 45 1550.77 64 56 54
161 45 1519.95 130 114 114
163 45 1609.4 103 93 83
173 45 1604.73 74 54 53
178 45 1631.57 92 61 59
203 45 1607.3 64 51 42
273 45 1584.55 123 103 66
275 45 1625.79 124 99 77
276 45 1620.65 125 100 78
291 45 1619.95 60 60 34
292 45 1615.3 62 58 33
293 45 1614.18 57 55 32
295 45 1626.25 57 60 41
349 45 1583.04 125 116 83
351 45 1633.99 89 91 70
385 45 1596.37 52 45 26
163 44 1617.99 80 73 65
178 44 1637.61 92 62 62
180 44 1593.01 88 75 59
269 44 1590.88 125 108 65
301 44 1624.82 79 80 62
348 44 1652.04 61 60 30
350 44 1620.97 162 162 138
385 44 1615.58 57 50 40
178 43 1642.63 91 67 67
180 43 1599.05 88 80 67
181 43 1643.95 70 55 50
295 43 1581.21 138 142 105
296 43 1594.65 131 135 98
297 43 1617.49 142 132 122
298 43 1623.22 147 138 121
300 43 1593.37 148 151 120
301 43 1585.56 158 158 130
325 43 1557.75 103 100 83
326 43 1561.65 111 105 89
327 43 1563.68 115 98 91
329 43 1660.36 110 107 92
330 43 1655.24 113 114 100
331 43 1644.68 107 109 95
332 43 1631.39 107 109 96
333 43 1629.64 107 107 97
334 43 1626.26 98 95 86
337 43 1638.1 98 85 77
338 43 1626.51 94 85 70
351 43 1655.41 87 84 75
204 42 1644.65 82 57 35
348 42 1642.47 70 62 49
386 42 1632.84 54 52 40
204 41 1647.54 81 58 42
205 41 1670.13 152 125 106
206 41 1567.96 212 197 174
305 41 1648.62 80 63 47
306 41 1646.41 54 44 32
349 41 1627.73 78 69 64
386 41 1636.5 64 62 50
395 41 1617.42 50 36 33
204 40 1654.21 73 53 44
205 40 1664.44 139 117 106
206 40 1572.38 205 193 181
324 40 1646.95 77 65 53
325 40 1642 80 66 55
385 40 1639.41 76 73 58
386 40 1649.93 92 92 80
395 40 1627.74 47 36 34
333 39 1674.69 97 90 72
384 39 1668.36 66 60 44
385 39 1649.51 84 82 67
386 39 1660.09 85 87 74
395 39 1634.17 46 36 35
333 38 1659.43 52 50 35
335 38 1619.26 63 50 33
381 38 1565.51 106 94 80
384 38 1674.96 64 60 48
385 38 1656.26 85 85 73
386 38 1667.74 69 72 63
300 36 1635.16 142 116 99
300 35 1640.06 142 123 109
3 26 27 23
3 28 24 23
3 27 28 23
3 66 67 57
3 68 58 57
3 67 68 57
3 81 82 73
3 83 74 73
3 82 83 73
3 84 75 74
3 83 84 74
3 85 76 75
3 84 85 75
3 87 78 77
3 86 87 77
3 88 79 78
3 87 88 78
3 89 80 79
3 88 89 79
3 90 84 83
3 90 85 84
3 95 96 91
3 99 100 92
3 100 93 92
3 101 102 97
3 103 98 97
3 102 103 97
3 104 99 98
3 103 104 98
3 105 100 99
3 104 105 99
3 108 109 101
3 110 102 101
3 109 110 101
3 111 103 102
3 110 111 102
3 111 104 103
3 113 107 106
3 112 113 106
3 114 108 107
3 113 114 107
3 114 109 108
3 115 116 112
3 117 113 112
3 116 117 112
3 117 114 113
3 125 126 118
3 131 125 124
3 130 131 124
3 131 126 125
3 152 153 141
3 154 142 141
3 153 154 141
3 155 143 142
3 154 155 142
3 156 144 143
3 155 156 143
3 157 145 144
3 156 157 144
3 162 148 147
3 161 162 147
3 163 149 148
3 162 163 148
3 163 150 149
3 175 176 174
3 178 176 175
3 177 178 175
3 178 179 176
3 181 178 177
3 182 179 178
3 181 182 178
3 183 180 179
3 182 183 179
3 185 182 181
3 186 183 182
3 185 186 182
3 189 186 185
3 190 191 187
3 195 191 190
3 194 195 190
3 198 195 194
3 207 208 203
3 210 206 205
3 209 210 205
3 210 211 206
3 214 208 207
3 216 217 214
3 220 217 216
3 219 220 216
3 221 222 218
3 222 223 218
3 224 220 219
3 226 222 221
3 225 226 221
3 227 223 222
3 226 227 222
3 228 229 224
3 231 226 225
3 230 231 225
3 232 227 226
3 231 232 226
3 232 233 227
3 235 229 228
3 234 235 228
3 236 231 230
3 237 232 231
3 236 237 231
3 238 233 232
3 237 238 232
3 239 235 234
3 240 237 236
3 241 238 237
3 240 241 237
3 245 241 240
3 245 246 241
3 247 244 243
3 247 248 244
3 250 246 245
3 253 252 251
3 275 266 265
3 274 275 265
3 276 267 266
3 275 276 266
3 276 277 267
3 277 278 268
3 278 279 268
3 279 280 269
3 281 270 269
3 280 281 269
3 282 271 270
3 281 282 270
3 283 272 271
3 282 283 271
3 283 284 272
3 285 276 275
3 286 277 276
3 285 286 276
3 287 278 277
3 286 287 277
3 288 279 278
3 287 288 278
3 289 280 279
3 288 289 279
3 289 281 280
3 296 297 290
3 298 291 290
3 297 298 290
3 300 295 294
3 301 296 295
3 300 301 295
3 302 297 296
3 301 302 296
3 303 298 297
3 302 303 297
3 303 304 298
3 307 302 301
3 308 303 302
3 307 308 302
3 309 304 303
3 308 309 303
3 310 305 304
3 309 310 304
3 311 306 305
3 310 311 305
3 311 312 306
3 317 318 315
3 319 316 315
3 318 319 315
3 319 320 316
3 323 318 317
3 322 323 317
3 324 319 318
3 323 324 318
3 325 320 319
3 324 325 319
3 326 321 320
3 325 326 320
3 326 327 321
3 329 323 322
3 330 325 324
3 331 326 325
3 330 331 325
3 332 327 326
3 331 332 326
3 333 328 327
3 332 333 327
3 333 334 328
3 336 332 331
3 337 333 332
3 336 337 332
3 338 334 333
3 337 338 333
3 343 342 341
3 348 349 345
3 349 346 345
3 351 352 347
3 353 348 347
3 352 353 347
3 353 349 348
3 354 355 350
3 357 355 354
3 358 356 355
3 357 358 355
3 358 359 356
3 362 358 357
3 363 359 358
3 362 363 358
3 367 366 365
3 367 368 366
3 370 368 367
3 371 369 368
3 370 371 368
3 371 372 369
3 373 371 370
3 374 372 371
3 373 374 371
3 376 374 373
3 376 377 374
3 379 377 376
3 380 378 377
3 379 380 377
3 380 381 378
3 412 397 396
3 413 398 397
3 412 413 397
3 414 399 398
3 413 414 398
3 415 400 399
3 414 415 399
3 416 401 400
3 415 416 400
3 417 402 401
3 416 417 401
3 418 403 402
3 417 418 402
3 419 404 403
3 418 419 403
3 419 420 404
3 420 421 405
3 422 406 405
3 421 422 405
3 423 407 406
3 422 423 406
3 424 408 407
3 423 424 407
3 425 409 408
3 424 425 408
3 426 410 409
3 425 426 409
3 427 411 410
3 426 427 410
3 427 428 411
3 439 437 436
3 440 438 437
3 439 440 437
3 440 441 438
3 451 444 443
3 450 451 443
3 451 445 444
3 467 461 460
3 468 462 461
3 467 468 461
3 468 469 462
3 469 470 463
3 471 464 463
3 470 471 463
3 491 484 483
3 490 491 483
3 492 491 490
3 506 502 501
3 523 524 522
3 529 524 523
3 528 529 523
3 530 529 528
3 542 543 539
3 545 542 541
3 544 545 541
3 546 543 542
3 545 546 542
3 547 545 544
3 563 559 558
3 562 563 558
3 577 578 573
3 621 622 611
3 623 612 611
3 622 623 611
3 624 613 612
3 623 624 612
3 624 625 613
3 630 624 623
3 631 625 624
3 630 631 624
3 631 632 625
3 637 638 627
3 639 628 627
3 638 639 627
3 643 638 637
3 642 643 637
3 643 639 638
3 656 657 654
3 668 669 665
3 670 669 668
3 673 674 670
3 675 672 671
3 676 673 672
3 675 676 672
3 677 674 673
3 676 677 673
3 694 695 688
3 699 700 690
3 702 692 691
3 713 714 702
3 716 714 713
3 745 746 731
3 746 747 731
3 747 748 732
3 749 733 732
3 748 749 732
3 749 734 733
3 765 753 752
3 765 754 753
3 782 777 776
3 784 785 781
3 788 789 784
3 789 785 784
3 801 788 787
3 802 789 788
3 805 796 795
3 804 805 795
3 808 809 801
3 812 805 804
3 815 809 808
3 818 819 815
3 824 819 818
3 830 831 827
3 861 862 855
3 873 868 867
3 874 875 871
3 878 875 874
3 880 881 876
3 883 884 878
3 886 881 880
3 885 886 880
3 888 886 885
3 887 888 885
3 896 897 887
3 898 888 887
3 897 898 887
3 905 891 890
3 905 906 891
3 909 898 897
3 910 911 899
3 920 921 904
3 928 911 910
3 946 947 937
3 948 942 941
3 958 959 949
3 967 959 958
3 966 967 958
3 968 961 960
3 973 974 966
3 974 967 966
3 979 974 973
3 993 987 986
3 992 993 986
3 995 993 992
3 995 996 993
3 1022 1006 1005
3 1022 1007 1006
3 1026 1011 1010
3 1028 1029 1017
3 1029 1018 1017
3 1066 1054 1053
3 1067 1068 1055
3 1068 1056 1055
3 1085 1086 1078
3 1091 1092 1080
3 1108 1109 1105
3 1117 1109 1108
3 1116 1117 1108
3 1118 1110 1109
3 1117 1118 1109
3 1121 1122 1114
3 1125 1126 1121
3 1127 1122 1121
3 1126 1127 1121
3 1133 1126 1125
3 1132 1133 1125
3 1134 1127 1126
3 1133 1134 1126
